<svg width="107" height="108" viewBox="0 0 107 108" fill="none" xmlns="http://www.w3.org/2000/svg">
<g clip-path="url(#clip0_4_3)" filter="url(#filter0_d_4_3)">
<path d="M43.445 36.8166C52.3741 36.8166 60.6131 39.1973 67.2257 43.2087V38.9603C67.0863 35.3667 66.5224 31.8001 65.5441 28.3352C64.7689 25.5891 63.373 23.058 61.4642 20.9371L61.0362 20.4616C60.4438 19.8033 59.7764 19.2166 59.0476 18.7134C56.0338 16.6325 53.2293 14.2638 50.6734 11.6406C49.8494 10.7949 49.2092 9.78791 48.7932 8.68286C47.7982 6.03994 47.4374 3.20038 47.7398 0.392604L47.7489 0.307893L48.7731 0.976767C50.2637 1.95023 51.9356 2.61262 53.6884 2.92423L54.3748 3.04626C56.1613 3.36386 57.9768 3.48788 59.7899 3.41616L65.8788 3.17531C66.7727 3.13995 67.6674 3.22357 68.5394 3.42397C71.0321 3.9969 73.142 5.64669 74.2991 7.92773L75.0521 9.41214L75.805 7.92773C76.9621 5.64669 79.072 3.9969 81.5647 3.42397C82.4367 3.22357 83.3314 3.13995 84.2253 3.17531L90.3142 3.41616C92.1273 3.48788 93.9428 3.36386 95.7293 3.04626L96.4157 2.92423C98.1685 2.61262 99.8404 1.95023 101.331 0.976767L102.355 0.307893L102.364 0.392604C102.667 3.20038 102.306 6.03994 101.311 8.68286C100.895 9.78791 100.255 10.7949 99.4307 11.6406C96.8748 14.2638 94.0703 16.6325 91.0565 18.7134C90.3277 19.2166 89.6603 19.8033 89.0679 20.4616L88.6399 20.9371C86.7311 23.058 85.3352 25.5891 84.5599 28.3352C83.5817 31.8001 83.0178 35.3667 82.8784 38.9603V69.8318H82.8384C81.9005 86.5989 64.6117 99.9769 43.445 99.9769C21.6777 99.9769 4.01154 85.829 4.01154 68.3968C4.01154 50.9645 21.6777 36.8166 43.445 36.8166Z" fill="white" fill-opacity="0.87"/>
</g>
<defs>
<filter id="filter0_d_4_3" x="-0.91413" y="0" width="108.312" height="108.312" filterUnits="userSpaceOnUse" color-interpolation-filters="sRGB">
<feFlood flood-opacity="0" result="BackgroundImageFix"/>
<feColorMatrix in="SourceAlpha" type="matrix" values="0 0 0 0 0 0 0 0 0 0 0 0 0 0 0 0 0 0 127 0" result="hardAlpha"/>
<feOffset dy="4"/>
<feGaussianBlur stdDeviation="2"/>
<feComposite in2="hardAlpha" operator="out"/>
<feColorMatrix type="matrix" values="0 0 0 0 0 0 0 0 0 0 0 0 0 0 0 0 0 0 0.25 0"/>
<feBlend mode="normal" in2="BackgroundImageFix" result="effect1_dropShadow_4_3"/>
<feBlend mode="normal" in="SourceGraphic" in2="effect1_dropShadow_4_3" result="shape"/>
</filter>
<clipPath id="clip0_4_3">
<rect width="100" height="100" fill="white" transform="translate(3.09741) scale(1.00289)"/>
</clipPath>
</defs>
</svg>
