<svg width="4" height="15" viewBox="0 0 4 15" fill="none" xmlns="http://www.w3.org/2000/svg">
<path d="M1.875 3.74999C2.90625 3.74999 3.74999 2.90625 3.74999 1.875C3.74999 0.843749 2.90625 0 1.875 0C0.843749 0 0 0.843749 0 1.875C0 2.90625 0.843749 3.74999 1.875 3.74999ZM1.875 5.62499C0.843749 5.62499 0 6.46874 0 7.49999C0 8.53124 0.843749 9.37499 1.875 9.37499C2.90625 9.37499 3.74999 8.53124 3.74999 7.49999C3.74999 6.46874 2.90625 5.62499 1.875 5.62499ZM1.875 11.25C0.843749 11.25 0 12.0937 0 13.125C0 14.1562 0.843749 15 1.875 15C2.90625 15 3.74999 14.1562 3.74999 13.125C3.74999 12.0937 2.90625 11.25 1.875 11.25Z" fill="#D9D9D9"/>
</svg>
