<svg width="225" height="50" viewBox="0 0 225 50" fill="none" xmlns="http://www.w3.org/2000/svg">
<path d="M14.8275 18.3825L3.1725 6.75L0 9.9225L11.6325 21.555L14.8275 18.3825ZM23.625 6.75L28.215 11.34L0 39.5775L3.1725 42.75L31.41 14.535L36 19.125V6.75H23.625ZM24.3675 27.9225L21.195 31.095L28.2375 38.1375L23.625 42.75H36V30.375L31.41 34.965L24.3675 27.9225Z" fill="#D9D9D9"/>
<path d="M99 20.25V29.25H105L112.5 36.75V12.75L105 20.25H99ZM119.25 24.75C119.25 22.095 117.72 19.815 115.5 18.705V30.78C117.72 29.685 119.25 27.405 119.25 24.75ZM115.5 11.595V14.685C119.835 15.975 123 19.995 123 24.75C123 29.505 119.835 33.525 115.5 34.815V37.905C121.515 36.54 126 31.17 126 24.75C126 18.33 121.515 12.96 115.5 11.595Z" fill="#D9D9D9"/>
<path d="M207 6.75V0L198 9L207 18V11.25C214.448 11.25 220.5 17.3025 220.5 24.75C220.5 27.0225 219.938 29.1825 218.925 31.05L222.21 34.335C223.965 31.5675 225 28.2825 225 24.75C225 14.805 216.945 6.75 207 6.75ZM207 38.25C199.552 38.25 193.5 32.1975 193.5 24.75C193.5 22.4775 194.062 20.3175 195.075 18.45L191.79 15.165C190.035 17.9325 189 21.2175 189 24.75C189 34.695 197.055 42.75 207 42.75V49.5L216 40.5L207 31.5V38.25Z" fill="#D9D9D9"/>
</svg>
